<svg width="153" height="120" viewBox="0 0 153 120" fill="none" xmlns="http://www.w3.org/2000/svg">
<path d="M104.976 99.8614C93.7606 88.6461 85.0326 65.9456 109.59 57.9228C122.99 53.5447 124.262 31.3715 144.286 51.3957C154.496 61.6058 160.837 80.5446 150.687 90.6942C146.912 107.952 115.186 110.071 104.976 99.8614Z" fill="#F4F1FF"/>
<path d="M12.8228 77.948C7.64894 72.7742 -0.181751 59.2909 11.1469 55.5898C17.3289 53.5701 18.9095 47.7885 28.1472 57.0261C32.8573 61.7362 32.8293 65.3433 28.1471 70.0255C26.4055 77.9869 17.5329 82.6581 12.8228 77.948Z" fill="#F4F1FF"/>
<path d="M62.677 38.3236C56.9698 29.774 54.2989 14.2397 70.924 12.2522C79.9962 11.1677 83.614 -2.76449 93.8041 12.5003C98.9998 20.2836 100.63 33.1245 92.8927 38.2894C88.3063 48.7801 67.8727 46.1069 62.677 38.3236Z" fill="#F4F1FF"/>
</svg>
