<svg width="122" height="166" viewBox="0 0 122 166" fill="none" xmlns="http://www.w3.org/2000/svg">
<g clip-path="url(#clip0_2114_93476)">
<path d="M94.3208 129.623C92.9121 131.507 90.1713 132.218 88.1991 131.21C86.2269 130.202 85.77 127.856 87.1787 125.971C88.5874 124.086 91.3281 123.375 93.3004 124.384C95.2726 125.392 95.7295 127.738 94.3208 129.623Z" fill="#E3DDFF" fill-opacity="0.4"/>
<path d="M84.016 132.845C82.6073 134.73 79.8665 135.441 77.8943 134.432C75.922 133.424 75.4652 131.078 76.8738 129.193C78.2825 127.308 81.0233 126.598 82.9955 127.606C84.9678 128.614 85.4246 130.96 84.016 132.845Z" fill="#E3DDFF" fill-opacity="0.4"/>
<path d="M77.8944 141.036C76.4858 142.921 73.745 143.632 71.7727 142.624C69.8005 141.615 69.3437 139.27 70.7523 137.385C72.161 135.5 74.9018 134.789 76.874 135.797C78.8463 136.806 79.3031 139.151 77.8944 141.036Z" fill="#E3DDFF" fill-opacity="0.4"/>
<path d="M79.017 150.101C77.6083 151.986 74.8675 152.697 72.8953 151.688C70.9231 150.68 70.4662 148.335 71.8749 146.45C73.2836 144.565 76.0243 143.854 77.9966 144.862C79.9688 145.871 80.4257 148.216 79.017 150.101Z" fill="#E3DDFF" fill-opacity="0.4"/>
<path d="M85.306 149.241C84.7367 147.308 84.2387 145.676 83.6795 143.73C83.3775 142.707 83.2081 141.508 83.5795 140.377C83.6346 140.197 83.7039 140.025 83.7876 139.86C83.9855 139.49 84.261 139.121 84.5263 138.766C84.7915 138.411 85.067 138.043 85.4037 137.724C85.5445 137.589 85.6996 137.46 85.8689 137.339C86.9259 136.559 88.289 136.162 89.5399 135.914C91.8845 135.471 93.872 135.11 96.2268 134.654C99.4346 133.822 103.148 132.683 105.742 134.575C106.903 135.716 107.601 137.45 106.679 139.45C106.148 140.556 102.928 143.307 100.398 146.692L100.214 146.938C97.6842 150.324 96.1355 153.928 95.1907 154.823C93.4399 156.399 91.2382 156.651 89.4996 156.309C86.2693 155.243 85.8407 151.986 85.306 149.241Z" fill="#E3DDFF" fill-opacity="0.4"/>
</g>
<g clip-path="url(#clip1_2114_93476)">
<path d="M101.035 64.2772C99.1407 65.7012 96.3118 65.6291 94.716 64.116C93.1203 62.603 93.3621 60.2219 95.2561 58.7979C97.15 57.3738 99.979 57.4459 101.575 58.959C103.17 60.4721 102.929 62.8531 101.035 64.2772Z" fill="#E3DDFF" fill-opacity="0.4"/>
<path d="M90.239 64.535C88.3451 65.9591 85.5161 65.887 83.9204 64.3739C82.3247 62.8608 82.5665 60.4798 84.4604 59.0557C86.3544 57.6317 89.1833 57.7038 90.779 59.2169C92.3748 60.73 92.133 63.111 90.239 64.535Z" fill="#E3DDFF" fill-opacity="0.4"/>
<path d="M82.0087 70.7234C80.1147 72.1475 77.2858 72.0754 75.6901 70.5623C74.0944 69.0492 74.3361 66.6682 76.2301 65.2442C78.124 63.8201 80.953 63.8922 82.5487 65.4053C84.1444 66.9184 83.9026 69.2994 82.0087 70.7234Z" fill="#E3DDFF" fill-opacity="0.4"/>
<path d="M80.4588 79.7482C78.5648 81.1723 75.7359 81.1001 74.1402 79.587C72.5445 78.074 72.7863 75.693 74.6802 74.2689C76.5742 72.8448 79.4031 72.917 80.9988 74.43C82.5945 75.9431 82.3528 78.3241 80.4588 79.7482Z" fill="#E3DDFF" fill-opacity="0.4"/>
<path d="M86.7271 80.6545C86.7416 78.6394 86.7375 76.9331 86.7658 74.9077C86.7727 73.8415 86.9579 72.6412 87.6408 71.6562C87.7454 71.4989 87.8617 71.3526 87.9894 71.2172C88.2861 70.9155 88.6565 70.637 89.0131 70.3689C89.3698 70.1007 89.7402 69.8222 90.1546 69.6089C90.3286 69.5173 90.5142 69.4368 90.7113 69.3671C91.9489 68.9082 93.3685 68.9017 94.6373 69.0087C97.0096 69.2292 99.0164 69.4296 101.402 69.6398C104.713 69.7242 108.598 69.6527 110.532 72.1867C111.313 73.6035 111.479 75.4633 110.017 77.1322C109.189 78.0495 105.311 79.8061 101.909 82.364L101.663 82.5497C98.2607 85.1075 95.7349 88.1463 94.5717 88.7458C92.4396 89.7791 90.2594 89.4143 88.6943 88.6066C85.9114 86.6908 86.4441 83.4412 86.7271 80.6545Z" fill="#E3DDFF" fill-opacity="0.4"/>
</g>
<g clip-path="url(#clip2_2114_93476)">
<path d="M40.4921 90.6181C38.2656 91.428 35.5805 90.534 34.4946 88.6213C33.4087 86.7086 34.3334 84.5014 36.5598 83.6914C38.7862 82.8815 41.4714 83.7755 42.5572 85.6882C43.6431 87.601 42.7185 89.8081 40.4921 90.6181Z" fill="#E3DDFF" fill-opacity="0.4"/>
<path d="M30.0899 87.7165C27.8634 88.5265 25.1783 87.6325 24.0924 85.7198C23.0066 83.807 23.9312 81.5998 26.1576 80.7899C28.3841 79.98 31.0692 80.8739 32.1551 82.7867C33.2409 84.6994 32.3163 86.9066 30.0899 87.7165Z" fill="#E3DDFF" fill-opacity="0.4"/>
<path d="M20.4147 91.2362C18.1883 92.0462 15.5031 91.1522 14.4173 89.2394C13.3314 87.3267 14.256 85.1195 16.4825 84.3096C18.7089 83.4996 21.394 84.3936 22.4799 86.3064C23.5658 88.2191 22.6411 90.4263 20.4147 91.2362Z" fill="#E3DDFF" fill-opacity="0.4"/>
<path d="M16.3041 99.4173C14.0777 100.227 11.3926 99.3333 10.3067 97.4205C9.22083 95.5078 10.1454 93.3006 12.3719 92.4907C14.5983 91.6807 17.2835 92.5747 18.3693 94.4874C19.4552 96.4002 18.5306 98.6074 16.3041 99.4173Z" fill="#E3DDFF" fill-opacity="0.4"/>
<path d="M22.0364 102.112C22.6372 100.189 23.1301 98.5554 23.7469 96.6261C24.064 95.6082 24.5907 94.514 25.5308 93.7709C25.6767 93.651 25.8305 93.5449 25.9921 93.4527C26.3638 93.2506 26.7992 93.0922 27.2184 92.9397C27.6377 92.7872 28.0731 92.6288 28.5316 92.5455C28.7247 92.5087 28.9257 92.4857 29.1346 92.4766C30.4521 92.3985 31.812 92.8063 32.9946 93.2787C35.1997 94.1814 37.061 94.9584 39.2822 95.8552C42.4249 96.9015 46.1614 97.9658 47.2742 100.954C47.6087 102.537 47.2259 104.365 45.3415 105.535C44.2824 106.171 40.0612 106.72 36.0621 108.175L35.7718 108.281C31.7728 109.735 28.4717 111.906 27.1845 112.14C24.844 112.507 22.8647 111.522 21.6027 110.293C19.4985 107.649 20.9543 104.695 22.0364 102.112Z" fill="#E3DDFF" fill-opacity="0.4"/>
</g>
<g clip-path="url(#clip3_2114_93476)">
<path d="M50.4921 18.5673C48.2656 19.3772 45.5805 18.4833 44.4946 16.5705C43.4087 14.6578 44.3334 12.4506 46.5598 11.6407C48.7862 10.8307 51.4714 11.7247 52.5572 13.6374C53.6431 15.5502 52.7185 17.7573 50.4921 18.5673Z" fill="#E3DDFF" fill-opacity="0.4"/>
<path d="M40.0899 15.6658C37.8634 16.4757 35.1783 15.5817 34.0924 13.669C33.0066 11.7562 33.9312 9.54906 36.1576 8.73912C38.3841 7.92917 41.0692 8.82316 42.1551 10.7359C43.2409 12.6486 42.3163 14.8558 40.0899 15.6658Z" fill="#E3DDFF" fill-opacity="0.4"/>
<path d="M30.4147 19.1854C28.1883 19.9954 25.5031 19.1014 24.4173 17.1887C23.3314 15.2759 24.256 13.0688 26.4825 12.2588C28.7089 11.4489 31.394 12.3429 32.4799 14.2556C33.5658 16.1683 32.6411 18.3755 30.4147 19.1854Z" fill="#E3DDFF" fill-opacity="0.4"/>
<path d="M26.3041 27.3665C24.0777 28.1765 21.3926 27.2825 20.3067 25.3697C19.2208 23.457 20.1454 21.2498 22.3719 20.4399C24.5983 19.6299 27.2835 20.5239 28.3693 22.4367C29.4552 24.3494 28.5306 26.5566 26.3041 27.3665Z" fill="#E3DDFF" fill-opacity="0.4"/>
<path d="M32.0364 30.0615C32.6372 28.1381 33.1301 26.5046 33.7469 24.5754C34.064 23.5574 34.5907 22.4633 35.5308 21.7202C35.6767 21.6002 35.8305 21.4941 35.9921 21.4019C36.3638 21.1998 36.7992 21.0414 37.2184 20.8889C37.6377 20.7364 38.0731 20.578 38.5316 20.4948C38.7247 20.4579 38.9257 20.435 39.1346 20.4259C40.4521 20.3477 41.812 20.7555 42.9946 21.2279C45.1997 22.1306 47.061 22.9076 49.2822 23.8044C52.4249 24.8507 56.1614 25.915 57.2742 28.9032C57.6087 30.4863 57.2259 32.3138 55.3415 33.484C54.2824 34.12 50.0612 34.6695 46.0621 36.1243L45.7718 36.2299C41.7728 37.6847 38.4717 39.855 37.1845 40.0892C34.844 40.456 32.8647 39.4712 31.6027 38.2421C29.4985 35.5979 30.9543 32.6447 32.0364 30.0615Z" fill="#E3DDFF" fill-opacity="0.4"/>
</g>
<defs>
<clipPath id="clip0_2114_93476">
<rect width="40.9042" height="38.5028" fill="white" transform="matrix(-0.59862 0.801033 0.89038 0.455218 82.4844 115.082)"/>
</clipPath>
<clipPath id="clip1_2114_93476">
<rect width="41.1893" height="38.224" fill="white" transform="matrix(-0.79927 0.600972 0.72565 0.688064 93.9219 47.0352)"/>
</clipPath>
<clipPath id="clip2_2114_93476">
<rect width="41.182" height="38.2319" fill="white" transform="matrix(-0.939748 0.341867 0.493693 0.869636 38.7031 72.0508)"/>
</clipPath>
<clipPath id="clip3_2114_93476">
<rect width="41.182" height="38.2319" fill="white" transform="matrix(-0.939748 0.341867 0.493693 0.869636 48.7031 0)"/>
</clipPath>
</defs>
</svg>
