<svg viewBox="0 0 120 119" xmlns="http://www.w3.org/2000/svg">

  <defs>
    <style><![CDATA[
      .sprite { display: none; }
      .sprite:target { display: inline; }
    ]]></style>
  </defs>

  <g class="sprite" id="modal-checkmark">
    <rect x="0.5" width="119" height="119" rx="59" fill="#34A853"/>
    <path d="M50.2677 71.3628L37.4927 58.5878L33.2344 62.8461L50.2677 79.8794L86.7677 43.3794L82.5094 39.1211L50.2677 71.3628Z" fill="white"/>
  </g>

  <g class="sprite" id="modal-exclamation-mark">
    <rect x="0.5" width="119" height="119" rx="59" fill="#FFF3E0"/>
    <mask id="mask0_2568_61798" style="mask-type:alpha" maskUnits="userSpaceOnUse" x="23" y="23" width="74" height="73">
    <rect x="23.5" y="23" width="73" height="73" fill="#D9D9D9"/>
    </mask>
    <g mask="url(#mask0_2568_61798)">
    <path d="M60 83.6019C58.7453 83.6019 57.6714 83.1553 56.7781 82.262C55.8844 81.3683 55.4375 80.2941 55.4375 79.0394C55.4375 77.7847 55.8844 76.7107 56.7781 75.8175C57.6714 74.9238 58.7453 74.4769 60 74.4769C61.2547 74.4769 62.3286 74.9238 63.2219 75.8175C64.1156 76.7107 64.5625 77.7847 64.5625 79.0394C64.5625 80.2941 64.1156 81.3683 63.2219 82.262C62.3286 83.1553 61.2547 83.6019 60 83.6019ZM55.8474 68.6863V33.8828H64.1526V68.6863H55.8474Z" fill="#FFA34F"/>
    </g>
  </g>

  <g class="sprite" id="no-pictures">
    <path d="M61.5383 12.2461C56.986 12.2461 52.9159 14.3476 50.2449 17.6306H9.03833C6.21745 17.6306 3.90625 19.9421 3.90625 22.7629V63.1477C3.90625 65.9686 6.21745 68.2798 9.03833 68.2798H65.5769C68.3978 68.2798 70.709 65.9686 70.709 63.1477V38.0952C73.9922 35.4242 76.0938 31.3539 76.0938 26.8015C76.0938 18.7758 69.564 12.2461 61.5383 12.2461ZM61.5383 14.4336C68.3818 14.4336 73.9062 19.958 73.9062 26.8015C73.9062 29.8285 72.825 32.5968 71.0273 34.7437L53.5964 17.3125C55.7433 15.5149 58.5115 14.4336 61.5383 14.4336ZM52.0493 18.8594L69.4805 36.2905C67.3336 38.088 64.5652 39.1692 61.5383 39.1692C54.6948 39.1692 49.1707 33.645 49.1707 26.8015C49.1707 23.7747 50.2517 21.0063 52.0493 18.8594ZM9.03833 19.8181H48.7712C47.632 21.8925 46.9832 24.2725 46.9832 26.8015C46.9832 34.8272 53.5126 41.3567 61.5383 41.3567C64.0672 41.3567 66.4472 40.708 68.5215 39.5689V56.3792L58.1309 45.4937C56.6964 43.9908 54.2945 43.8925 52.7417 45.2727L43.5569 53.437L28.5032 31.9314C27.4946 30.4905 26.0531 29.6453 24.5564 29.6814C23.0597 29.7175 21.6604 30.6312 20.7224 32.1191L6.09375 55.3232V22.7629C6.09375 21.126 7.4014 19.8181 9.03833 19.8181ZM24.6091 31.8684C25.2698 31.8525 26.0156 32.1923 26.7112 33.186L42.4692 55.698C42.5577 55.8244 42.672 55.9307 42.8045 56.0098C42.937 56.0889 43.0847 56.1391 43.238 56.1571C43.3913 56.175 43.5466 56.1604 43.6938 56.114C43.841 56.0677 43.9767 55.9907 44.092 55.8882L54.1951 46.9077C54.8635 46.3136 55.9312 46.3573 56.5486 47.0042L68.5215 59.5471V63.1477C68.5215 64.7846 67.2138 66.0923 65.5769 66.0923H9.03833C7.4014 66.0923 6.09375 64.7846 6.09375 63.1477V59.4253L22.573 33.2859C23.2199 32.2597 23.9484 31.8843 24.6091 31.8684Z" fill="#49454F"/>
  </g>

</svg>
