<svg viewBox="0 0 32 32" xmlns="http://www.w3.org/2000/svg">

  <defs>
    <style><![CDATA[
      .sprite { display: none; }
      .sprite:target { display: inline; }
    ]]></style>
  </defs>

  <g class="sprite" id="google" transform="scale(1.33)">
    <path d="M24.2148 12.2261C24.2148 11.2429 24.135 10.5253 23.9623 9.78125H12.7344V14.2192H19.3249C19.1921 15.3221 18.4746 16.9831 16.8801 18.0992L16.8577 18.2478L20.4078 20.998L20.6537 21.0225C22.9126 18.9363 24.2148 15.8669 24.2148 12.2261Z" fill="#4285F4"/>
    <path d="M12.7301 23.9178C15.9589 23.9178 18.6695 22.8548 20.6494 21.0211L16.8758 18.0978C15.8659 18.8021 14.5106 19.2937 12.7301 19.2937C9.56767 19.2937 6.88361 17.2076 5.92681 14.3242L5.78657 14.3361L2.09515 17.193L2.04688 17.3271C4.01341 21.2337 8.05283 23.9178 12.7301 23.9178Z" fill="#34A853"/>
    <path d="M5.92895 14.3228C5.67649 13.5787 5.53038 12.7814 5.53038 11.9576C5.53038 11.1338 5.67649 10.3365 5.91567 9.59244L5.90898 9.43397L2.1713 6.53125L2.04901 6.58942C1.23851 8.21052 0.773438 10.0309 0.773438 11.9576C0.773438 13.8843 1.23851 15.7047 2.04901 17.3258L5.92895 14.3228Z" fill="#FBBC05"/>
    <path d="M12.7301 4.62403C14.9756 4.62403 16.4904 5.59402 17.3541 6.40461L20.7291 3.10928C18.6563 1.1826 15.9589 0 12.7301 0C8.05283 0 4.01341 2.68406 2.04688 6.59056L5.91353 9.59359C6.88361 6.7102 9.56767 4.62403 12.7301 4.62403Z" fill="#EB4335"/>
  </g>

  <g class="sprite" id="plus" transform="scale(1.77)">
    <path d="M8.25 9.75H3.75V8.25H8.25V3.75H9.75V8.25H14.25V9.75H9.75V14.25H8.25V9.75Z" fill="white"/>
  </g>

  <g class="sprite" id="avatar-placeholder">
    <rect width="32" height="32" rx="16" fill="#F5EFF7"/>
    <path fill-rule="evenodd" clip-rule="evenodd" d="M20.8002 12.8C20.8002 15.451 18.6512 17.6 16.0002 17.6C13.3492 17.6 11.2002 15.451 11.2002 12.8C11.2002 10.149 13.3492 8 16.0002 8C18.6512 8 20.8002 10.149 20.8002 12.8ZM19.2002 12.8C19.2002 14.5673 17.7675 16 16.0002 16C14.2329 16 12.8002 14.5673 12.8002 12.8C12.8002 11.0327 14.2329 9.6 16.0002 9.6C17.7675 9.6 19.2002 11.0327 19.2002 12.8Z" fill="#5A00D6"/>
    <path d="M16.0002 20C10.8207 20 6.40761 23.0627 4.72656 27.3536C5.13608 27.7603 5.56747 28.1449 6.01883 28.5056C7.27062 24.5662 11.1976 21.6 16.0002 21.6C20.8028 21.6 24.7298 24.5662 25.9816 28.5057C26.4329 28.1449 26.8643 27.7603 27.2738 27.3536C25.5928 23.0627 21.1797 20 16.0002 20Z" fill="#5A00D6"/>
  </g>

  <g class="sprite" id="cross">
    <path d="M25.3307 8.54797L23.4507 6.66797L15.9974 14.1213L8.54406 6.66797L6.66406 8.54797L14.1174 16.0013L6.66406 23.4546L8.54406 25.3346L15.9974 17.8813L23.4507 25.3346L25.3307 23.4546L17.8774 16.0013L25.3307 8.54797Z" fill="currentColor"/>
  </g>

  <g class="sprite" id="password-visible">
    <path d="M15.001 12.001C15.001 12.7966 14.6849 13.5597 14.1223 14.1223C13.5597 14.6849 12.7966 15.001 12.001 15.001C11.2053 15.001 10.4423 14.6849 9.87966 14.1223C9.31705 13.5597 9.00098 12.7966 9.00098 12.001C9.00098 11.2053 9.31705 10.4423 9.87966 9.87966C10.4423 9.31705 11.2053 9.00098 12.001 9.00098C12.7966 9.00098 13.5597 9.31705 14.1223 9.87966C14.6849 10.4423 15.001 11.2053 15.001 12.001Z" />
    <path d="M21.8944 11.554C19.7364 7.23698 15.9044 5.00098 12.0004 5.00098C8.09744 5.00098 4.26444 7.23698 2.10644 11.554C2.03708 11.6928 2.00098 11.8458 2.00098 12.001C2.00098 12.1561 2.03708 12.3092 2.10644 12.448C4.26444 16.765 8.09644 19.001 12.0004 19.001C15.9034 19.001 19.7364 16.765 21.8944 12.448C21.9638 12.3092 21.9999 12.1561 21.9999 12.001C21.9999 11.8458 21.9638 11.6928 21.8944 11.554ZM12.0004 17.001C9.03144 17.001 5.99844 15.381 4.13044 12.001C5.99844 8.62098 9.03044 7.00098 12.0004 7.00098C14.9694 7.00098 18.0024 8.62098 19.8704 12.001C18.0024 15.381 14.9694 17.001 12.0004 17.001Z" />
  </g>

  <g class="sprite" id="password-hidden">
    <path d="M4.70647 3.29243C4.51786 3.11027 4.26526 3.00948 4.00306 3.01176C3.74087 3.01403 3.49006 3.1192 3.30465 3.30461C3.11924 3.49002 3.01407 3.74083 3.01179 4.00303C3.00951 4.26523 3.11031 4.51783 3.29247 4.70643L5.71647 7.13043C4.28647 8.20643 3.03847 9.68443 2.10547 11.5524C2.03611 11.6912 2 11.8443 2 11.9994C2 12.1546 2.03611 12.3076 2.10547 12.4464C4.26347 16.7634 8.09547 18.9994 11.9995 18.9994C13.5545 18.9994 15.0995 18.6444 16.5295 17.9444L19.2925 20.7064C19.4811 20.8886 19.7337 20.9894 19.9959 20.9871C20.2581 20.9848 20.5089 20.8797 20.6943 20.6942C20.8797 20.5088 20.9849 20.258 20.9871 19.9958C20.9894 19.7336 20.8886 19.481 20.7065 19.2924L4.70647 3.29243ZM15.0135 16.4274C14.0335 16.8104 13.0135 16.9994 11.9995 16.9994C9.03047 16.9994 5.99747 15.3794 4.12947 11.9994C4.94647 10.5204 5.98747 9.37943 7.14747 8.56243L9.29147 10.7064C9.02355 11.2664 8.93593 11.8957 9.04068 12.5075C9.14543 13.1193 9.4374 13.6836 9.87634 14.1226C10.3153 14.5615 10.8796 14.8535 11.4914 14.9582C12.1032 15.063 12.7325 14.9753 13.2925 14.7074L15.0125 16.4274H15.0135ZM18.5515 13.8954C19.0345 13.3394 19.4775 12.7084 19.8695 11.9994C18.0015 8.61943 14.9695 6.99943 11.9995 6.99943C11.8875 6.99943 11.7755 7.00143 11.6635 7.00643L9.87847 5.22243C10.5757 5.0743 11.2866 4.99955 11.9995 4.99943C15.9025 4.99943 19.7355 7.23543 21.8935 11.5524C21.9628 11.6912 21.9989 11.8443 21.9989 11.9994C21.9989 12.1546 21.9628 12.3076 21.8935 12.4464C21.3809 13.4821 20.7336 14.4455 19.9685 15.3114L18.5515 13.8954Z" />
  </g>

  <g class="sprite" id="location" transform="scale(1.33)">
    <path d="M12 12C10.9 12 10 11.1 10 10C10 8.9 10.9 8 12 8C13.1 8 14 8.9 14 10C14 11.1 13.1 12 12 12ZM18 10.2C18 6.57 15.35 4 12 4C8.65 4 6 6.57 6 10.2C6 12.54 7.95 15.64 12 19.34C16.05 15.64 18 12.54 18 10.2ZM12 2C16.2 2 20 5.22 20 10.2C20 13.52 17.33 17.45 12 22C6.67 17.45 4 13.52 4 10.2C4 5.22 7.8 2 12 2Z" fill="#28005F"/>
  </g>

  <g class="sprite" id="sex" transform="scale(1.33)">
    <path d="M17.58 4H14V2H21V9H19V5.41L15.17 9.24C15.6219 9.92243 15.8994 10.7054 15.9781 11.5201C16.0568 12.3348 15.9343 13.1564 15.6213 13.9127C15.3083 14.669 14.8144 15.3369 14.183 15.8578C13.5516 16.3786 12.802 16.7365 12 16.9V19H14V21H12V23H10V21H8V19H10V16.9C8.87064 16.6695 7.8556 16.0558 7.12669 15.1629C6.39778 14.27 5.99976 13.1527 6 12C6 10.6739 6.52678 9.40215 7.46447 8.46447C8.40215 7.52678 9.67392 7 11 7C12 7 12.96 7.3 13.75 7.83L17.58 4ZM11 9C10.2044 9 9.44129 9.31607 8.87868 9.87868C8.31607 10.4413 8 11.2044 8 12C8 12.7956 8.31607 13.5587 8.87868 14.1213C9.44129 14.6839 10.2044 15 11 15C11.7956 15 12.5587 14.6839 13.1213 14.1213C13.6839 13.5587 14 12.7956 14 12C14 11.2044 13.6839 10.4413 13.1213 9.87868C12.5587 9.31607 11.7956 9 11 9Z" fill="#28005F"/>
  </g>

  <g class="sprite" id="calendar" transform="scale(1.33)">
    <path d="M19 4H18V2H16V4H8V2H6V4H5C3.89 4 3.01 4.9 3.01 6L3 20C3 21.1 3.89 22 5 22H19C20.1 22 21 21.1 21 20V6C21 4.9 20.1 4 19 4ZM19 20H5V10H19V20ZM19 8H5V6H19V8ZM9 14H7V12H9V14ZM13 14H11V12H13V14ZM17 14H15V12H17V14ZM9 18H7V16H9V18ZM13 18H11V16H13V18ZM17 18H15V16H17V18Z" fill="#28005F"/>
  </g>

  <g class="sprite" id="grid-columns">
    <path d="M20 5H4C2.9 5 2 6.0125 2 7.25V20.75C2 21.9875 2.9 23 4 23H20C21.1 23 22 21.9875 22 20.75V7.25C22 6.0125 21.1 5 20 5ZM4 20.75V7.25H8V20.75H4ZM10 20.75V7.25H14V20.75H10ZM20 20.75H16V7.25H20V20.75Z" />
  </g>

  <g class="sprite" id="grid-rows">
    <path d="M19 15.125H5C3.9 15.125 3 16.1375 3 17.375V21.875C3 23.1125 3.9 24.125 5 24.125H19C20.1 24.125 21 23.1125 21 21.875V17.375C21 16.1375 20.1 15.125 19 15.125ZM19 21.875H5V17.375H19V21.875Z" />
    <path d="M19 3.875H5C3.9 3.875 3 4.8875 3 6.125V10.625C3 11.8625 3.9 12.875 5 12.875H19C20.1 12.875 21 11.8625 21 10.625V6.125C21 4.8875 20.1 3.875 19 3.875ZM19 10.625H5V6.125H19V10.625Z" />
  </g>
  
  <g class="sprite" id="search" transform="scale(1.33)">
    <path d="M19.6 21L13.3 14.7C12.8 15.1 12.225 15.4167 11.575 15.65C10.925 15.8833 10.2333 16 9.5 16C7.68333 16 6.14583 15.3708 4.8875 14.1125C3.62917 12.8542 3 11.3167 3 9.5C3 7.68333 3.62917 6.14583 4.8875 4.8875C6.14583 3.62917 7.68333 3 9.5 3C11.3167 3 12.8542 3.62917 14.1125 4.8875C15.3708 6.14583 16 7.68333 16 9.5C16 10.2333 15.8833 10.925 15.65 11.575C15.4167 12.225 15.1 12.8 14.7 13.3L21 19.6L19.6 21ZM9.5 14C10.75 14 11.8125 13.5625 12.6875 12.6875C13.5625 11.8125 14 10.75 14 9.5C14 8.25 13.5625 7.1875 12.6875 6.3125C11.8125 5.4375 10.75 5 9.5 5C8.25 5 7.1875 5.4375 6.3125 6.3125C5.4375 7.1875 5 8.25 5 9.5C5 10.75 5.4375 11.8125 6.3125 12.6875C7.1875 13.5625 8.25 14 9.5 14Z" fill="white"/>
  </g>

  <g class="sprite" id="photo">
<path d="M18.828 6.66667L21.268 9.33333H26.668V25.3333H5.33464V9.33333H10.7346L13.1746 6.66667H18.828ZM20.0013 4H12.0013L9.5613 6.66667H5.33464C3.86797 6.66667 2.66797 7.86667 2.66797 9.33333V25.3333C2.66797 26.8 3.86797 28 5.33464 28H26.668C28.1346 28 29.3346 26.8 29.3346 25.3333V9.33333C29.3346 7.86667 28.1346 6.66667 26.668 6.66667H22.4413L20.0013 4ZM16.0013 13.3333C18.2013 13.3333 20.0013 15.1333 20.0013 17.3333C20.0013 19.5333 18.2013 21.3333 16.0013 21.3333C13.8013 21.3333 12.0013 19.5333 12.0013 17.3333C12.0013 15.1333 13.8013 13.3333 16.0013 13.3333ZM16.0013 10.6667C12.3213 10.6667 9.33464 13.6533 9.33464 17.3333C9.33464 21.0133 12.3213 24 16.0013 24C19.6813 24 22.668 21.0133 22.668 17.3333C22.668 13.6533 19.6813 10.6667 16.0013 10.6667Z" fill="#AAAAAA"/>
  </g>

  <g class="sprite" id="filter" transform="scale(1.78)">
    <path d="M8 13.5H11V12H8V13.5ZM2.75 4.5V6H16.25V4.5H2.75ZM5 9.75H14V8.25H5V9.75Z" fill="#FFFFFF" />
  </g>
  
  <g class="sprite" id="pencil">
    <path d="M3 17.25V21H6.75L17.81 9.94L14.06 6.19L3 17.25ZM5.92 19H5V18.08L14.06 9.02L14.98 9.94L5.92 19ZM20.71 5.63L18.37 3.29C18.17 3.09 17.92 3 17.66 3C17.4 3 17.15 3.1 16.96 3.29L15.13 5.12L18.88 8.87L20.71 7.04C21.1 6.65 21.1 6.02 20.71 5.63Z"/>
  </g>
  
  <g class="sprite" id="phone" transform="scale(1.33)">
    <path d="M6.54 5C6.6 5.89 6.75 6.76 6.99 7.59L5.79 8.79C5.38 7.59 5.12 6.32 5.03 5H6.54ZM16.4 17.02C17.25 17.26 18.12 17.41 19 17.47V18.96C17.68 18.87 16.41 18.61 15.2 18.21L16.4 17.02ZM7.5 3H4C3.45 3 3 3.45 3 4C3 13.39 10.61 21 20 21C20.55 21 21 20.55 21 20V16.51C21 15.96 20.55 15.51 20 15.51C18.76 15.51 17.55 15.31 16.43 14.94C16.33 14.9 16.22 14.89 16.12 14.89C15.86 14.89 15.61 14.99 15.41 15.18L13.21 17.38C10.38 15.93 8.06 13.62 6.62 10.79L8.82 8.59C9.1 8.31 9.18 7.92 9.07 7.57C8.7 6.45 8.5 5.25 8.5 4C8.5 3.45 8.05 3 7.5 3Z" fill="#28005F"/>
  </g>

  <g class="sprite" id="mail" transform="scale(1.33)">
    <path d="M22 6C22 4.9 21.1 4 20 4H4C2.9 4 2 4.9 2 6V18C2 19.1 2.9 20 4 20H20C21.1 20 22 19.1 22 18V6ZM20 6L12 11L4 6H20ZM20 18H4V8L12 13L20 8V18Z" fill="#28005F"/>
  </g>

  <g class="sprite" id="toaster-error">
    <path d="M14.6641 20.0013H17.3307V22.668H14.6641V20.0013ZM14.6641 9.33464H17.3307V17.3346H14.6641V9.33464ZM15.9841 2.66797C8.62406 2.66797 2.66406 8.6413 2.66406 16.0013C2.66406 23.3613 8.62406 29.3346 15.9841 29.3346C23.3574 29.3346 29.3307 23.3613 29.3307 16.0013C29.3307 8.6413 23.3574 2.66797 15.9841 2.66797ZM15.9974 26.668C10.1041 26.668 5.33073 21.8946 5.33073 16.0013C5.33073 10.108 10.1041 5.33464 15.9974 5.33464C21.8907 5.33464 26.6641 10.108 26.6641 16.0013C26.6641 21.8946 21.8907 26.668 15.9974 26.668Z" fill="#FF4D4F"/>
  </g>

  <g class="sprite" id="toaster-warning">
    <path d="M16.0026 8.65203L26.0426 25.9987H5.9626L16.0026 8.65203ZM16.0026 3.33203L1.33594 28.6654H30.6693L16.0026 3.33203ZM17.3359 21.9987H14.6693V24.6654H17.3359V21.9987ZM17.3359 13.9987H14.6693V19.332H17.3359V13.9987Z" fill="#FFA34F"/>
  </g>

  <g class="sprite" id="toaster-success">
    <path d="M11.7268 21.1653L6.16677 15.6053L4.27344 17.4853L11.7268 24.9386L27.7268 8.93859L25.8468 7.05859L11.7268 21.1653Z" fill="#2CAE44"/>
  </g>

  <g class="sprite" id="cloud">
    <path d="M25.8 13.3854C24.8933 8.78536 20.8533 5.33203 16 5.33203C12.1467 5.33203 8.8 7.5187 7.13333 10.7187C3.12 11.1454 0 14.5454 0 18.6654C0 23.0787 3.58667 26.6654 8 26.6654H25.3333C29.0133 26.6654 32 23.6787 32 19.9987C32 16.4787 29.2667 13.6254 25.8 13.3854ZM25.3333 23.9987H8C5.05333 23.9987 2.66667 21.612 2.66667 18.6654C2.66667 15.932 4.70667 13.652 7.41333 13.372L8.84 13.2254L9.50667 11.9587C10.7733 9.5187 13.2533 7.9987 16 7.9987C19.4933 7.9987 22.5067 10.4787 23.1867 13.9054L23.5867 15.9054L25.6267 16.052C27.7067 16.1854 29.3333 17.932 29.3333 19.9987C29.3333 22.1987 27.5333 23.9987 25.3333 23.9987ZM10.6667 17.332H14.0667V21.332H17.9333V17.332H21.3333L16 11.9987L10.6667 17.332Z" fill="#5A00D6"/>
  </g>

  <g class="sprite" id="person" transform="scale(1.33)">
    <path d="M12 6C13.1 6 14 6.9 14 8C14 9.1 13.1 10 12 10C10.9 10 10 9.1 10 8C10 6.9 10.9 6 12 6ZM12 16C14.7 16 17.8 17.29 18 18H6C6.23 17.28 9.31 16 12 16ZM12 4C9.79 4 8 5.79 8 8C8 10.21 9.79 12 12 12C14.21 12 16 10.21 16 8C16 5.79 14.21 4 12 4ZM12 14C9.33 14 4 15.34 4 18V20H20V18C20 15.34 14.67 14 12 14Z" fill="#28005F"/>
  </g>

  <g class="sprite" id="paw" transform="scale(1.33)">
    <path d="M16.3184 12.8671C15.1142 11.5992 13.5806 10.901 12.0001 10.901C10.4196 10.901 8.88595 11.5992 7.68178 12.8671C6.53334 14.0762 5.7315 15.7546 5.42385 17.593C5.22759 18.7656 5.58595 19.8943 6.40706 20.6897C7.26103 21.5168 8.37651 21.7682 9.46762 21.3794C10.2764 21.0912 11.1284 20.945 12.0001 20.945C12.8717 20.945 13.7238 21.0912 14.5327 21.3794C14.8692 21.4994 15.2079 21.5583 15.5407 21.5583C16.2869 21.5583 17.0026 21.2616 17.5932 20.6896C18.4143 19.8943 18.7726 18.7656 18.5764 17.5929C18.2687 15.7546 17.4669 14.0762 16.3184 12.8671ZM16.5495 19.6122C16.1084 20.0396 15.5851 20.1621 15.0361 19.9665C14.0653 19.6205 13.0438 19.4451 12 19.4451C10.9563 19.4451 9.93482 19.6205 8.96404 19.9665C8.41514 20.1622 7.89178 20.0396 7.45064 19.6122C6.98236 19.1586 6.78792 18.5294 6.90318 17.8405C7.43062 14.6886 9.57412 12.4009 12 12.4009C14.4259 12.4009 16.5694 14.6886 17.0969 17.8405C17.2122 18.5295 17.0178 19.1587 16.5495 19.6122ZM15.5804 10.35C16.4092 10.35 17.2001 9.889 17.7503 9.08514C18.2492 8.35642 18.5239 7.4013 18.5239 6.39573C18.5239 5.39013 18.2492 4.435 17.7503 3.70628C17.2001 2.90242 16.4092 2.44141 15.5804 2.44141C14.7517 2.44141 13.9609 2.90238 13.4106 3.70623C12.9117 4.43495 12.637 5.39013 12.637 6.39569C12.637 7.40125 12.9117 8.35637 13.4106 9.08509C13.9609 9.889 14.7517 10.35 15.5804 10.35ZM15.5804 3.94136C16.2632 3.94136 17.0239 4.94931 17.0239 6.39569C17.0239 7.84202 16.2632 8.84997 15.5804 8.84997C14.8978 8.84997 14.137 7.84202 14.137 6.39569C14.137 4.94931 14.8978 3.94136 15.5804 3.94136ZM8.41973 10.35C9.24848 10.35 10.0394 9.889 10.5896 9.08514C11.0885 8.35642 11.3632 7.4013 11.3632 6.39573C11.3632 5.39017 11.0885 4.435 10.5896 3.70628C10.0394 2.90242 9.24848 2.44141 8.41973 2.44141C7.59098 2.44141 6.80006 2.90242 6.24984 3.70628C5.75095 4.435 5.47626 5.39013 5.47626 6.39573C5.47626 7.4013 5.75095 8.35642 6.24984 9.08514C6.80006 9.889 7.59098 10.35 8.41973 10.35ZM8.41973 3.94136C9.10242 3.94136 9.86315 4.94931 9.86315 6.39569C9.86315 7.84202 9.10242 8.84997 8.41973 8.84997C7.737 8.84997 6.97626 7.84202 6.97626 6.39569C6.97626 4.94931 7.73695 3.94136 8.41973 3.94136ZM23.0865 10.0435C22.8001 9.27841 22.2361 8.72566 21.5392 8.52691C20.8422 8.32816 20.0716 8.50038 19.4249 8.99931C18.8358 9.45372 18.3868 10.1407 18.1607 10.9336C17.9346 11.7265 17.9537 12.547 18.2145 13.2438C18.5009 14.0088 19.0649 14.5615 19.7618 14.7603C19.9516 14.8144 20.1468 14.8411 20.3435 14.8411C20.8692 14.8411 21.4055 14.651 21.8762 14.2879C22.4653 13.8335 22.9143 13.1465 23.1404 12.3536C23.3664 11.5607 23.3474 10.7402 23.0865 10.0435ZM21.6979 11.9423C21.4166 12.9288 20.6691 13.4591 20.1732 13.3179C19.6778 13.1766 19.3219 12.3316 19.6032 11.345C19.8544 10.4639 20.4778 9.94694 20.9611 9.94694C21.019 9.94694 21.075 9.95434 21.128 9.96944C21.4487 10.0608 21.6126 10.3845 21.6817 10.5693C21.8288 10.9622 21.8347 11.4625 21.6979 11.9423ZM5.8395 10.9337C5.61342 10.1407 5.16445 9.45377 4.57532 8.99931C3.9285 8.50038 3.15792 8.3283 2.46098 8.52691C1.76414 8.72561 1.20014 9.27836 0.913683 10.0435C0.65287 10.7402 0.633699 11.5607 0.859824 12.3536C1.08595 13.1465 1.53487 13.8335 2.124 14.2879C2.59471 14.651 3.13092 14.8411 3.65667 14.8411C3.85335 14.8411 4.04864 14.8145 4.23839 14.7603C4.93528 14.5616 5.49918 14.0088 5.78564 13.2438C6.04645 12.547 6.06557 11.7266 5.8395 10.9337ZM3.82706 13.3178C3.33145 13.4589 2.58365 12.9289 2.30231 11.9422C2.16553 11.4625 2.17143 10.9622 2.31848 10.5693C2.38771 10.3845 2.55164 10.0608 2.87226 9.96939C3.36825 9.82825 4.11562 10.3584 4.39696 11.345C4.67831 12.3316 4.32239 13.1766 3.82706 13.3178Z" fill="#28005F"/>
  </g>

  <g class="sprite" id="label" transform="scale(1.33)">
    <path d="M21.41 11.58L12.41 2.58C12.05 2.22 11.55 2 11 2H4C2.9 2 2 2.9 2 4V11C2 11.55 2.22 12.05 2.59 12.42L11.59 21.42C11.95 21.78 12.45 22 13 22C13.55 22 14.05 21.78 14.41 21.41L21.41 14.41C21.78 14.05 22 13.55 22 13C22 12.45 21.77 11.94 21.41 11.58ZM13 20.01L4 11V4H11V3.99L20 12.99L13 20.01Z" fill="#28005F"/>
    <path d="M6.5 8C7.32843 8 8 7.32843 8 6.5C8 5.67157 7.32843 5 6.5 5C5.67157 5 5 5.67157 5 6.5C5 7.32843 5.67157 8 6.5 8Z" fill="#28005F"/>
    <path d="M8.9 12.55C8.9 13.12 9.13 13.62 9.5 14L13 17.5L16.5 14C16.87 13.63 17.1 13.11 17.1 12.55C17.1 11.42 16.18 10.5 15.05 10.5C14.48 10.5 13.97 10.73 13.6 11.1L13 11.7L12.4 11.11C12.03 10.73 11.51 10.5 10.95 10.5C9.82 10.5 8.9 11.42 8.9 12.55Z" fill="#28005F"/>
  </g>

  <g class="sprite" id="drop" transform="scale(1.33)">
    <path d="M12 2C6.67 6.55 4 10.48 4 13.8C4 18.78 7.8 22 12 22C16.2 22 20 18.78 20 13.8C20 10.48 17.33 6.55 12 2ZM12 20C8.65 20 6 17.43 6 13.8C6 11.46 7.95 8.36 12 4.66C16.05 8.36 18 11.45 18 13.8C18 17.43 15.35 20 12 20ZM7.83 14C8.2 14 8.5 14.26 8.57 14.62C8.98 16.84 10.85 17.6 12.21 17.49C12.64 17.47 13 17.81 13 18.24C13 18.64 12.68 18.97 12.28 18.99C10.15 19.12 7.66 17.9 7.09 14.87C7.01 14.42 7.37 14 7.83 14Z" fill="#28005F"/>
  </g>

  <g class="sprite" id="house" transform="scale(1.33)">
    <path d="M12 6.19L17 10.69V18.5H15V12.5H9V18.5H7V10.69L12 6.19ZM12 3.5L2 12.5H5V20.5H11V14.5H13V20.5H19V12.5H22L12 3.5Z" fill="#28005F"/>
  </g>

  <g class="sprite" id="health-shield" transform="scale(1.33)">
    <path d="M10.5 13H8V10H10.5V7.5H13.5V10H16V13H13.5V15.5H10.5V13ZM12 2L4 5V11.09C4 16.14 7.41 20.85 12 22C16.59 20.85 20 16.14 20 11.09V5L12 2ZM18 11.09C18 15.09 15.45 18.79 12 19.92C8.55 18.79 6 15.1 6 11.09V6.39L12 4.14L18 6.39V11.09Z" fill="#28005F"/>
  </g>

  <g class="sprite" id="document" transform="scale(1.33)">
    <path d="M19 5V19H5V5H19ZM19 3H5C3.9 3 3 3.9 3 5V19C3 20.1 3.9 21 5 21H19C20.1 21 21 20.1 21 19V5C21 3.9 20.1 3 19 3Z" fill="#28005F"/>
    <path d="M14 17H7V15H14V17ZM17 13H7V11H17V13ZM17 9H7V7H17V9Z" fill="#28005F"/>
  </g>

  <g class="sprite" id="telegram">
    <g clip-path="url(#clip0_1083_84297)">
    <path d="M12 24C18.6274 24 24 18.6274 24 12C24 5.37258 18.6274 0 12 0C5.37258 0 0 5.37258 0 12C0 18.6274 5.37258 24 12 24Z" fill="url(#paint0_linear_1083_84297)"/>
    <path fill-rule="evenodd" clip-rule="evenodd" d="M5.42714 11.872C8.92538 10.3478 11.2581 9.34304 12.4253 8.8576C15.7578 7.47151 16.4503 7.23071 16.9016 7.22274C17.0009 7.22101 17.2228 7.24561 17.3666 7.36229C17.5799 7.53535 17.5811 7.91101 17.5574 8.15963C17.3768 10.0571 16.5954 14.6618 16.1978 16.787C16.0296 17.6863 15.6984 17.9878 15.3778 18.0173C14.6809 18.0814 14.1518 17.5568 13.4768 17.1143C12.4207 16.422 11.824 15.991 10.7988 15.3155C9.61402 14.5347 10.3821 14.1056 11.0573 13.4043C11.234 13.2208 14.3043 10.4281 14.3638 10.1747C14.3712 10.143 14.3781 10.0249 14.3079 9.96254C14.2378 9.90019 14.1342 9.92147 14.0595 9.93844C13.9536 9.96249 12.2663 11.0777 8.99785 13.284C8.51892 13.6129 8.08514 13.7731 7.6965 13.7647C7.26802 13.7555 6.44386 13.5225 5.83116 13.3233C5.07966 13.079 4.48238 12.9498 4.53441 12.535C4.5615 12.3188 4.85907 12.0979 5.42714 11.872Z" fill="white"/>
    </g>
    <defs>
    <linearGradient id="paint0_linear_1083_84297" x1="12" y1="0" x2="12" y2="23.8125" gradientUnits="userSpaceOnUse">
    <stop stop-color="#2AABEE"/>
    <stop offset="1" stop-color="#229ED9"/>
    </linearGradient>
    <clipPath id="clip0_1083_84297">
    <rect width="24" height="24" fill="white"/>
    </clipPath>
    </defs>
  </g>

  <g class="sprite" id="cross-small">
    <path d="M7.5 1.205L6.795 0.5L4 3.295L1.205 0.5L0.5 1.205L3.295 4L0.5 6.795L1.205 7.5L4 4.705L6.795 7.5L7.5 6.795L4.705 4L7.5 1.205Z"/>
  </g>

</svg>
