<svg viewBox="0 0 204 56" xmlns="http://www.w3.org/2000/svg">

  <defs>
    <style><![CDATA[
      .sprite { display: none; }
      .sprite:target { display: inline; }
    ]]></style>
  </defs>

  <g class="sprite" id="footer-logo">
    <mask id="mask0_951_3149" style="mask-type:luminance" maskUnits="userSpaceOnUse" x="0" y="0" width="56" height="56">
    <path d="M5.94264 0.21875H50.2762C51.7933 0.21875 53.2475 0.821613 54.3207 1.89484C55.3973 2.96807 56.0001 4.42554 56.0001 5.94264V50.2762C56.0001 51.7933 55.3973 53.2508 54.3207 54.324C53.2475 55.3973 51.7933 56.0001 50.2762 56.0001H5.94264C4.42223 56.0001 2.96807 55.3973 1.89484 54.324C0.821613 53.2508 0.21875 51.7933 0.21875 50.2762V5.94264C0.21875 4.42554 0.821613 2.96807 1.89484 1.89484C2.96807 0.821613 4.42223 0.21875 5.94264 0.21875Z" fill="white"/>
    </mask>
    <g mask="url(#mask0_951_3149)">
    <path d="M0.21875 0.21875H56.0001V56.0001H0.21875V0.21875Z" fill="white"/>
    </g>
    <mask id="mask1_951_3149" style="mask-type:luminance" maskUnits="userSpaceOnUse" x="0" y="0" width="56" height="56">
    <path d="M0 0H56V56H0V0Z" fill="white"/>
    </mask>
    <g mask="url(#mask1_951_3149)">
    </g>
    <path d="M44.8059 22.746C44.4095 21.7993 43.7468 21.1159 42.8948 20.7728L42.883 20.7698C42.4895 20.616 42.0842 20.5391 41.6641 20.5391H41.6168C39.6643 20.5686 37.6704 22.2283 36.6557 24.6719C35.9131 26.4557 35.8273 28.3757 36.4279 29.8075C36.8243 30.7542 37.487 31.4376 38.3449 31.7807L38.3537 31.7837C38.7472 31.9375 39.1525 32.0144 39.5726 32.0144C41.5458 32.0144 43.5604 30.3519 44.5929 27.8787C45.3265 26.0948 45.4094 24.1778 44.8059 22.746Z" fill="#313131"/>
    <path d="M37.004 33.2765C35.8768 32.602 34.8118 31.96 34.1166 30.8092C32.1967 27.626 31.04 25.7031 28.0018 25.7031C24.9606 25.7031 23.8009 27.626 21.878 30.8092C21.1798 31.963 20.1119 32.602 18.9818 33.2824C17.6861 34.0604 16.3489 34.8651 15.7691 36.4508C15.5442 37.0247 15.4318 37.6223 15.4377 38.2435C15.4377 40.8202 17.4435 42.9177 19.9107 42.9177C21.1858 42.9177 22.5377 42.4769 23.9725 42.0095C25.3511 41.5598 26.777 41.0983 28.0077 41.0983C29.2383 41.0983 30.6613 41.5598 32.034 42.0095C33.4658 42.4739 34.8118 42.9147 36.0898 42.9147C38.5512 42.9147 40.5569 40.8173 40.5569 38.2405C40.5599 37.6193 40.4445 37.0217 40.2167 36.4478C39.6369 34.8621 38.2997 34.0575 37.004 33.2765Z" fill="#313131"/>
    <path d="M20.3911 23.1818C21.2461 24.2527 22.3288 24.8444 23.4412 24.8444C23.592 24.8444 23.7429 24.8325 23.8938 24.8089C26.2161 24.4687 27.6627 21.6346 27.1864 18.3567C26.9882 16.9752 26.4587 15.6913 25.6984 14.7387C24.8464 13.6707 23.7607 13.082 22.6483 13.082C22.4975 13.082 22.3466 13.0939 22.1957 13.1175C19.8734 13.4577 18.4268 16.2889 18.9031 19.5697C19.1013 20.9482 19.6308 22.2292 20.3911 23.1818Z" fill="#313131"/>
    <path d="M32.0933 24.8089C32.2442 24.8325 32.395 24.8444 32.5489 24.8444C33.6612 24.8444 34.7439 24.2527 35.5959 23.1818C36.3562 22.2292 36.8828 20.9482 37.084 19.5697C37.5603 16.2889 36.1137 13.4577 33.7914 13.1146C33.6405 13.0909 33.4896 13.082 33.3387 13.082C32.2264 13.082 31.1407 13.6707 30.2887 14.7387C29.5284 15.6913 28.9989 16.9752 28.8007 18.3567C28.3273 21.6346 29.771 24.4687 32.0933 24.8089Z" fill="#313131"/>
    <path d="M17.6408 31.7837L17.6496 31.7807C18.5076 31.4376 19.1673 30.7542 19.5637 29.8105C20.1672 28.3757 20.0814 26.4557 19.3388 24.6719C18.3123 22.2016 16.2977 20.5391 14.3274 20.5391C13.9073 20.5391 13.4991 20.616 13.1086 20.7698L13.0968 20.7728C12.2448 21.113 11.5821 21.7964 11.1857 22.743C10.5851 24.1778 10.6709 26.0948 11.4135 27.8816C12.44 30.3519 14.4546 32.0144 16.4249 32.0144C16.845 32.0144 17.2503 31.9375 17.6408 31.7837Z" fill="#313131"/>
    <path fill-rule="evenodd" clip-rule="evenodd" d="M179.484 12.3476C179.484 11.8506 179.499 11.4808 179.532 11.2352C179.561 10.9927 179.653 10.7116 179.804 10.3951C180.103 9.82117 180.934 9.53125 182.301 9.53125C183.602 9.53125 184.413 9.82117 184.738 10.3951C184.904 10.7116 185.002 10.9986 185.034 11.2589C185.073 11.5133 185.093 11.8831 185.093 12.3712V27.1984C185.093 27.9646 185.156 28.4498 185.283 28.6539C185.407 28.861 185.688 28.9616 186.123 28.9616C186.564 28.9616 186.859 28.9793 187.01 29.0089C187.158 29.0415 187.342 29.1332 187.555 29.2811C187.981 29.5592 188.194 30.3165 188.194 31.5531C188.194 32.8962 187.981 33.7156 187.555 34.0144C187.002 34.399 185.676 34.4641 183.579 34.2038C181.937 33.9907 180.872 33.4464 180.384 32.5707C179.783 31.5294 179.484 29.8668 179.484 27.5771V12.3476ZM150.74 13.0459C150.74 12.1939 150.021 11.5134 148.586 10.9987C148.009 10.7857 147.509 10.6792 147.083 10.6792C146.657 10.6792 146.296 10.7946 146.006 11.0224C145.722 11.2442 145.524 11.472 145.415 11.7087C145.311 11.9394 145.178 12.3004 145.012 12.7974L141.486 23.542L137.806 12.4424C137.679 12.0962 137.38 11.7501 136.907 11.401C136.439 11.046 135.936 10.8685 135.392 10.8685C134.848 10.8685 134.401 10.9454 134.055 11.0934C133.265 11.4336 132.721 12.0519 132.422 12.9512L128.943 23.4829L125.416 12.7974C125.203 12.0874 124.961 11.5637 124.695 11.2235C124.425 10.8863 124.038 10.7147 123.535 10.7147C123.038 10.7147 122.482 10.8212 121.866 11.0342C120.438 11.5253 119.725 12.1939 119.725 13.0459C119.725 13.3861 119.837 13.9097 120.068 14.6197L126.245 32.3815L126.47 32.8667C126.618 33.1832 126.91 33.5027 127.345 33.8252C127.786 34.1417 128.345 34.2985 129.026 34.2985C129.712 34.2985 130.304 34.0559 130.801 33.5649C130.99 33.3755 131.159 33.1625 131.309 32.9259C131.457 32.6892 131.552 32.5087 131.593 32.3815C131.641 32.2573 132.848 28.6954 135.214 21.696L138.954 32.7365C139.102 33.0767 139.406 33.4229 139.865 33.7779C140.329 34.1269 140.874 34.2985 141.498 34.2985C142.128 34.2985 142.672 34.1269 143.131 33.7779C143.587 33.4229 143.868 33.1389 143.971 32.9259C144.081 32.7129 144.16 32.5324 144.208 32.3815L150.349 14.6197C150.61 13.8476 150.74 13.3239 150.74 13.0459ZM86.7441 19.3882C86.7441 18.0007 86.4631 16.7434 85.904 15.6133C85.3508 14.4773 84.6378 13.578 83.7621 12.9153C81.993 11.5515 80.1707 10.8682 78.2951 10.8682H71.4436C70.0769 10.8682 69.2456 11.1581 68.9468 11.732C68.7723 12.0574 68.6687 12.3414 68.6391 12.584C68.6066 12.8295 68.5918 13.1964 68.5918 13.6845V31.4582C68.5918 32.2007 68.6539 32.7539 68.7811 33.1148C69.0415 33.9047 69.9171 34.2982 71.4081 34.2982C72.7719 34.2982 73.6032 34.0112 73.905 33.4343C74.0765 33.1207 74.1801 32.8397 74.2126 32.5942C74.2422 32.3427 74.26 31.9729 74.26 31.4818V27.8727H78.2596C80.1589 27.8727 81.993 27.1863 83.7621 25.8137C84.6378 25.1599 85.3508 24.2724 85.904 23.1512C86.4631 22.0329 86.7441 20.7786 86.7441 19.3882ZM80.1766 21.5063C79.5613 21.9737 78.9341 22.2045 78.2951 22.2045H74.26V16.5363H78.2596C78.9223 16.5363 79.5613 16.7789 80.1766 17.2582C80.7979 17.7404 81.1115 18.4504 81.1115 19.3882C81.1115 20.3289 80.7979 21.033 80.1766 21.5063ZM101.817 26.7959C102.47 26.1658 102.799 25.1954 102.799 23.8849C102.799 22.5684 102.435 21.3585 101.71 20.252C100.329 18.1635 98.1542 17.1162 95.1899 17.1162C92.5866 17.1162 90.4122 17.9209 88.6697 19.5302C86.9332 21.1395 86.0664 23.2903 86.0664 25.9794C86.0664 28.1094 86.735 30.0441 88.0781 31.7777C88.7644 32.6711 89.717 33.387 90.9417 33.9314C92.1724 34.4757 93.5747 34.7479 95.1544 34.7479C99.6984 34.7479 101.97 33.7983 101.97 31.896C101.97 31.4937 101.831 31.0056 101.556 30.4287C101.065 29.4673 100.479 28.985 99.7931 28.985C99.4529 28.985 99.0269 29.1034 98.5151 29.34L98.1601 29.4702C97.456 29.7246 96.4857 29.8489 95.2491 29.8489C94.545 29.8489 93.8409 29.6477 93.1309 29.2454C92.4268 28.843 92.0777 28.3431 92.0777 27.7425H99.6629C100.45 27.7425 101.169 27.429 101.817 26.7959ZM97.2607 23.802C97.2607 24.4884 96.8584 24.8315 96.0537 24.8315H92.0186C92.0186 24.1866 92.3558 23.5831 93.0362 23.021C93.7226 22.453 94.4119 22.169 95.1071 22.169C95.7993 22.169 96.3318 22.3199 96.7046 22.6187C97.0744 22.9205 97.2607 23.3139 97.2607 23.802ZM113.399 23.1277L111.317 22.9975V27.4232C111.317 28 111.406 28.4172 111.589 28.6775C111.769 28.9319 112.11 29.0562 112.607 29.0562C113.11 29.0562 113.497 29.0739 113.766 29.1035C114.033 29.136 114.317 29.2337 114.618 29.3993C115.106 29.6833 115.352 30.4022 115.352 31.553C115.352 32.8961 115.05 33.7155 114.453 34.0143C114.136 34.1652 113.852 34.2569 113.601 34.2865C113.355 34.319 113 34.3338 112.536 34.3338C110.317 34.3338 108.631 33.8339 107.471 32.831C106.317 31.8311 105.743 30.133 105.743 27.7427V22.9975C105.341 23.0685 104.903 23.104 104.43 23.104C103.962 23.104 103.578 22.9235 103.27 22.5597C102.962 22.1987 102.809 21.5775 102.809 20.7018C102.809 19.8262 102.859 19.1931 102.962 18.7967C103.072 18.4032 103.223 18.1192 103.412 17.9447C103.749 17.6695 104.175 17.5305 104.69 17.5305L105.743 17.6607V14.3592C105.743 13.871 105.758 13.5072 105.791 13.2705C105.829 13.0338 105.933 12.7794 106.098 12.5013C106.373 11.9747 107.193 11.7085 108.56 11.7085C110.009 11.7085 110.879 12.1049 111.163 12.8918C111.264 13.232 111.317 13.7764 111.317 14.5248V17.6607C112.255 17.5749 112.965 17.5305 113.447 17.5305C113.926 17.5305 114.29 17.5482 114.535 17.5778C114.778 17.6104 115.062 17.7139 115.387 17.8855C115.938 18.1636 116.216 18.983 116.216 20.3468C116.216 21.6899 115.926 22.5094 115.352 22.8082C115.027 22.959 114.743 23.0507 114.5 23.0803C114.254 23.1129 113.888 23.1277 113.399 23.1277ZM147.736 25.9201C147.736 23.3581 148.63 21.2429 150.422 19.5774C152.212 17.9148 154.259 17.0806 156.564 17.0806C158.866 17.0806 160.901 17.9089 162.67 19.5656C164.445 21.2163 165.332 23.3226 165.332 25.8846C165.332 27.6537 164.874 29.2275 163.96 30.6061C163.043 31.9787 161.927 32.9934 160.611 33.6472C159.3 34.2951 157.94 34.6176 156.528 34.6176C155.123 34.6176 153.759 34.2744 152.434 33.5881C151.115 32.8958 150.002 31.8693 149.097 30.5114C148.189 29.1565 147.736 27.6241 147.736 25.9201ZM154.422 28.2039C155.108 28.7246 155.801 28.9849 156.505 28.9849C157.206 28.9849 157.907 28.7216 158.611 28.1921C159.321 27.6566 159.676 26.8667 159.676 25.8254C159.676 24.7781 159.345 23.9971 158.682 23.4824C158.019 22.9706 157.301 22.7132 156.528 22.7132C155.762 22.7132 155.049 22.9824 154.387 23.5179C153.724 24.0474 153.393 24.8314 153.393 25.8727C153.393 26.9081 153.736 27.6832 154.422 28.2039ZM178.607 18.3115C178.338 18.0038 177.998 17.7879 177.589 17.6607C177.187 17.5275 176.814 17.4358 176.477 17.3885C176.137 17.3352 175.714 17.3057 175.211 17.3057C174.714 17.3057 174.134 17.4891 173.471 17.85C172.809 18.2139 172.374 18.5008 172.17 18.7138C171.963 18.9268 171.809 19.1102 171.708 19.2582C171.708 18.8972 171.59 18.5452 171.353 18.205C171.037 17.708 170.235 17.4595 168.951 17.4595C167.584 17.4595 166.753 17.7494 166.454 18.3233C166.303 18.6251 166.212 18.9002 166.182 19.1517C166.15 19.3972 166.135 19.764 166.135 20.2522V31.482V32.4168C166.182 33.0322 166.374 33.4907 166.715 33.7895C167.164 34.1534 167.901 34.3338 168.927 34.3338C170.268 34.3338 171.099 34.0587 171.424 33.5055C171.59 33.183 171.688 32.899 171.72 32.6535C171.75 32.4109 171.767 32.0441 171.767 31.553V24.8317C171.767 24.2577 172.016 23.7667 172.513 23.3643C173.016 22.9561 173.557 22.749 174.134 22.749C174.708 22.749 175.175 22.8377 175.53 23.0093C175.885 23.175 176.252 23.2578 176.631 23.2578C177.403 23.2578 177.992 22.8525 178.394 22.039C178.802 21.2284 179.009 20.4829 179.009 19.8025C179.009 19.1162 178.873 18.6192 178.607 18.3115ZM200.803 9.97205C200.4 10.0993 200.116 10.3211 199.951 10.6347C199.791 10.9424 199.696 11.2205 199.667 11.463C199.634 11.7086 199.619 12.0754 199.619 12.5635V19.2849C198.744 18.2199 197.516 17.6874 195.939 17.6874C194.037 17.6874 192.288 18.5335 190.697 20.2197C189.111 21.9089 188.318 23.8703 188.318 26.1009C188.318 28.3256 189.105 30.278 190.685 31.9584C192.262 33.6328 194.013 34.4671 195.939 34.4671C197.539 34.4671 198.785 33.9553 199.678 32.9287C199.85 33.9701 200.678 34.4907 202.163 34.4907C203.645 34.4907 204.548 34.2038 204.873 33.6269C205.039 33.3281 205.136 33.0559 205.169 32.8104C205.199 32.5678 205.216 32.201 205.216 31.7099V12.599C205.216 12.1109 205.199 11.7441 205.169 11.4985C205.136 11.256 205.042 10.972 204.885 10.6465C204.725 10.3241 204.441 10.0993 204.033 9.97205C203.631 9.8478 203.089 9.78271 202.412 9.78271C201.74 9.78271 201.205 9.8478 200.803 9.97205ZM196.767 28.8935C195.977 28.8935 195.306 28.6066 194.756 28.0297C194.202 27.4558 193.927 26.8168 193.927 26.1127C193.927 25.4027 194.179 24.7578 194.685 24.172C195.196 23.5893 195.88 23.2964 196.732 23.2964C197.59 23.2964 198.27 23.5981 198.767 24.1957C199.27 24.7874 199.525 25.4323 199.525 26.1245C199.525 26.8198 199.258 27.4558 198.732 28.0297C198.211 28.6066 197.554 28.8935 196.767 28.8935ZM68 44.8917V39.4839H72.2718V44.8917H71.1358V40.4424H69.136V44.8917H68ZM80.2347 43.649C80.4152 43.2319 80.5069 42.7438 80.5069 42.1817C80.5069 41.6226 80.4152 41.1345 80.2347 40.7144C80.0513 40.2973 79.7732 39.9748 79.3945 39.744C79.0159 39.5163 78.5307 39.4009 77.939 39.4009C77.3474 39.4009 76.8622 39.5163 76.4835 39.744C76.1049 39.9748 75.8209 40.2973 75.6315 40.7144C75.4481 41.1256 75.3594 41.6108 75.3594 42.1699C75.3594 42.732 75.4481 43.223 75.6315 43.649C75.8209 44.0691 76.1049 44.3916 76.4835 44.6194C76.8622 44.8501 77.3474 44.9625 77.939 44.9625C78.5218 44.9625 79.004 44.8501 79.3827 44.6194C79.7673 44.3916 80.0513 44.0691 80.2347 43.649ZM76.8859 43.5189C76.6729 43.1964 76.5664 42.7497 76.5664 42.1817C76.5664 41.6137 76.6729 41.17 76.8859 40.8445C77.1048 40.5221 77.4568 40.3594 77.939 40.3594C78.4272 40.3594 78.7792 40.5221 78.9922 40.8445C79.2052 41.17 79.3117 41.6137 79.3117 42.1817C79.3117 42.7497 79.2052 43.1964 78.9922 43.5189C78.7792 43.8443 78.4272 44.004 77.939 44.004C77.4568 44.004 77.1048 43.8443 76.8859 43.5189ZM90.3958 44.8917H83.6035V39.4839H84.7395V43.9332H86.4198V39.4839H87.5795V43.9332H89.2598V39.4839H90.3958V44.8917ZM96.395 43.3061L98.0635 39.4839H96.8802L95.9454 41.7559C95.898 41.8683 95.8448 41.9985 95.7915 42.1464C95.7353 42.2884 95.6909 42.4067 95.6614 42.5014H95.6259C95.5933 42.4067 95.546 42.2884 95.4839 42.1464C95.4188 42.0044 95.3714 41.8979 95.3419 41.8269L94.336 39.4839H93.1172L94.9869 43.3652C94.9218 43.5486 94.836 43.7025 94.7265 43.8267C94.6141 43.9451 94.4336 44.0042 94.1822 44.0042C94.0461 44.0042 93.91 43.9983 93.768 43.9806C93.626 43.9569 93.4959 43.9214 93.3775 43.8741V44.8562C93.5018 44.8888 93.6438 44.9095 93.8035 44.9272C93.9603 44.9509 94.1023 44.9627 94.2295 44.9627C94.6555 44.9627 94.9987 44.8976 95.259 44.7734C95.5194 44.6403 95.7353 44.4509 95.9099 44.2054C96.0814 43.9539 96.2441 43.6551 96.395 43.3061ZM105.123 44.8917H103.821L101.857 42.1464V44.8917H100.721V39.4839H101.857V42.0991L103.797 39.4839H105.016L103.052 42.0872L105.123 44.8917ZM115.577 43.9332V39.4839H112.429C112.34 40.1554 112.231 40.756 112.098 41.2826C111.97 41.8121 111.825 42.2943 111.66 42.7262C111.494 43.1611 111.311 43.5634 111.115 43.9332H110.701V46.4656H111.814V44.8917H115.198V46.4656H116.298V43.9332H115.577ZM113.34 40.4424H114.441V43.9332H112.322C112.488 43.5782 112.636 43.1996 112.772 42.7972C112.905 42.389 113.021 41.9807 113.115 41.5784C113.216 41.1701 113.293 40.7915 113.34 40.4424ZM120.831 39.4839C121.523 39.4839 122.029 39.6348 122.346 39.9336C122.668 40.2353 122.831 40.6495 122.831 41.1761C122.831 41.4926 122.763 41.7884 122.63 42.0636C122.503 42.3328 122.287 42.5487 121.979 42.7144C121.671 42.8801 121.257 42.9629 120.737 42.9629H120.24V44.8917H119.104V39.4839H120.831ZM120.76 40.4187H120.24V42.0281H120.618C120.941 42.0281 121.198 41.9659 121.387 41.8387C121.577 41.7056 121.671 41.4956 121.671 41.2116C121.671 40.685 121.367 40.4187 120.76 40.4187ZM128.491 43.3061L130.159 39.4839H128.976L128.041 41.7559C127.994 41.8683 127.94 41.9985 127.887 42.1464C127.831 42.2884 127.787 42.4067 127.757 42.5014H127.722C127.689 42.4067 127.642 42.2884 127.58 42.1464C127.514 42.0044 127.467 41.8979 127.438 41.8269L126.432 39.4839H125.213L127.083 43.3652C127.017 43.5486 126.932 43.7025 126.822 43.8267C126.71 43.9451 126.529 44.0042 126.278 44.0042C126.142 44.0042 126.006 43.9983 125.864 43.9806C125.722 43.9569 125.592 43.9214 125.473 43.8741V44.8562C125.597 44.8888 125.739 44.9095 125.899 44.9272C126.056 44.9509 126.198 44.9627 126.325 44.9627C126.751 44.9627 127.094 44.8976 127.355 44.7734C127.615 44.6403 127.831 44.4509 128.006 44.2054C128.177 43.9539 128.34 43.6551 128.491 43.3061ZM136.224 39.4839V40.4306H133.952V44.8917H132.816V39.4839H136.224ZM141.943 43.6016L142.334 44.8915H143.576L141.659 39.46H140.251L138.346 44.8915H139.576L139.979 43.6016H141.943ZM141.28 41.3888L141.671 42.6431H140.263L140.653 41.3888C140.668 41.3355 140.695 41.2409 140.736 41.1048C140.768 40.9957 140.799 40.8806 140.832 40.7596C140.84 40.733 140.847 40.706 140.854 40.6788C140.902 40.5309 140.937 40.4037 140.961 40.3001C140.985 40.4037 141.014 40.525 141.056 40.667C141.094 40.803 141.132 40.9362 141.174 41.0693C141.212 41.1965 141.248 41.303 141.28 41.3888Z" fill="white"/>
  </g>

  <g class="sprite" id="header-logo">
    <mask id="mask0_906_5383" style="mask-type:luminance" maskUnits="userSpaceOnUse" x="0" y="1" width="44" height="44">
    <path d="M4.66921 1.17188H39.5028C40.6948 1.17188 41.8373 1.64555 42.6806 2.4888C43.5264 3.33205 44.0001 4.47721 44.0001 5.66921V40.5028C44.0001 41.6948 43.5264 42.8399 42.6806 43.6832C41.8373 44.5264 40.6948 45.0001 39.5028 45.0001H4.66921C3.47461 45.0001 2.33205 44.5264 1.4888 43.6832C0.645553 42.8399 0.171875 41.6948 0.171875 40.5028V5.66921C0.171875 4.47721 0.645553 3.33205 1.4888 2.4888C2.33205 1.64555 3.47461 1.17188 4.66921 1.17188Z" fill="white"/>
    </mask>
    <g mask="url(#mask0_906_5383)">
    <path d="M0.171875 1.17188H44.0001V45.0001H0.171875V1.17188Z" fill="#5E17EB"/>
    </g>
    <mask id="mask1_906_5383" style="mask-type:luminance" maskUnits="userSpaceOnUse" x="0" y="1" width="44" height="44">
    <path d="M0 1H44V45H0V1Z" fill="white"/>
    </mask>
    <g mask="url(#mask1_906_5383)">
    </g>
    <path d="M36.6791 18.4118C36.3329 17.585 35.7541 16.9882 35.01 16.6885L34.9997 16.6859C34.6561 16.5516 34.3021 16.4844 33.9352 16.4844H33.8939C32.1886 16.5102 30.4472 17.9597 29.561 20.0938C28.9125 21.6518 28.8375 23.3286 29.362 24.5792C29.7082 25.406 30.287 26.0028 31.0363 26.3025L31.044 26.3051C31.3877 26.4394 31.7416 26.5066 32.1085 26.5066C33.8319 26.5066 35.5914 25.0546 36.4931 22.8946C37.1338 21.3366 37.2062 19.6623 36.6791 18.4118Z" fill="white"/>
    <path d="M29.8589 27.6104C28.8745 27.0213 27.9444 26.4607 27.3372 25.4556C25.6604 22.6755 24.6502 20.9961 21.9967 20.9961C19.3406 20.9961 18.3278 22.6755 16.6484 25.4556C16.0386 26.4632 15.1059 27.0213 14.1189 27.6156C12.9873 28.2951 11.8194 28.9979 11.313 30.3827C11.1166 30.884 11.0185 31.4059 11.0236 31.9485C11.0236 34.1989 12.7754 36.0308 14.9302 36.0308C16.0438 36.0308 17.2246 35.6458 18.4777 35.2376C19.6817 34.8448 20.927 34.4418 22.0019 34.4418C23.0767 34.4418 24.3194 34.8448 25.5183 35.2376C26.7688 35.6432 27.9444 36.0282 29.0606 36.0282C31.2102 36.0282 32.962 34.1963 32.962 31.9459C32.9646 31.4033 32.8638 30.8814 32.6649 30.3802C32.1585 28.9953 30.9906 28.2925 29.8589 27.6104Z" fill="white"/>
    <path d="M15.3631 18.7935C16.1098 19.7288 17.0554 20.2455 18.0269 20.2455C18.1587 20.2455 18.2904 20.2352 18.4222 20.2145C20.4504 19.9174 21.7139 17.4422 21.2979 14.5794C21.1248 13.3728 20.6623 12.2515 19.9983 11.4195C19.2542 10.4868 18.3059 9.97266 17.3345 9.97266C17.2027 9.97266 17.0709 9.98299 16.9392 10.0037C14.9109 10.3008 13.6475 12.7734 14.0635 15.6388C14.2366 16.8428 14.6991 17.9615 15.3631 18.7935Z" fill="white"/>
    <path d="M25.579 20.2145C25.7108 20.2352 25.8426 20.2455 25.9769 20.2455C26.9484 20.2455 27.894 19.7288 28.6382 18.7935C29.3022 17.9615 29.7621 16.8428 29.9378 15.6388C30.3537 12.7734 29.0903 10.3008 27.0621 10.0011C26.9303 9.98041 26.7985 9.97266 26.6668 9.97266C25.6953 9.97266 24.7471 10.4868 24.003 11.4195C23.3389 12.2515 22.8765 13.3728 22.7034 14.5794C22.29 17.4422 23.5508 19.9174 25.579 20.2145Z" fill="white"/>
    <path d="M12.9528 26.3051L12.9606 26.3025C13.7098 26.0028 14.286 25.406 14.6322 24.5817C15.1593 23.3286 15.0844 21.6518 14.4359 20.0938C13.5393 17.9364 11.7798 16.4844 10.0591 16.4844C9.69217 16.4844 9.33561 16.5516 8.99456 16.6859L8.98423 16.6885C8.24012 16.9856 7.66136 17.5825 7.31514 18.4092C6.79065 19.6623 6.86558 21.3366 7.51409 22.8972C8.41064 25.0546 10.1702 26.5066 11.8909 26.5066C12.2578 26.5066 12.6118 26.4394 12.9528 26.3051Z" fill="white"/>
    <path fill-rule="evenodd" clip-rule="evenodd" d="M153.446 9.49489C153.446 9.05461 153.46 8.72703 153.49 8.50951C153.517 8.29462 153.601 8.04565 153.74 7.76524C154.015 7.25683 154.779 7 156.037 7C157.234 7 157.979 7.25683 158.279 7.76524C158.431 8.04565 158.521 8.29986 158.551 8.53048C158.586 8.75586 158.605 9.08344 158.605 9.51585V22.6507C158.605 23.3295 158.662 23.7593 158.779 23.9401C158.894 24.1235 159.152 24.2126 159.552 24.2126C159.957 24.2126 160.23 24.2284 160.368 24.2546C160.504 24.2834 160.673 24.3646 160.869 24.4957C161.261 24.742 161.457 25.4129 161.457 26.5083C161.457 27.6981 161.261 28.4241 160.869 28.6888C160.36 29.0294 159.141 29.0871 157.212 28.8565C155.702 28.6678 154.722 28.1856 154.273 27.4099C153.721 26.4874 153.446 25.0146 153.446 22.9862V9.49489ZM69.4663 15.7477C69.4663 14.5636 69.2342 13.4906 68.7725 12.5262C68.3157 11.5567 67.7269 10.7892 67.0038 10.2237C65.543 9.05977 64.0381 8.47656 62.4893 8.47656H56.8315C55.7029 8.47656 55.0164 8.72398 54.7697 9.21377C54.6256 9.49149 54.5401 9.73386 54.5156 9.94089C54.4888 10.1504 54.4766 10.4635 54.4766 10.8801V26.0485C54.4766 26.6822 54.5279 27.1543 54.6329 27.4623C54.8479 28.1364 55.571 28.4722 56.8022 28.4722C57.9284 28.4722 58.6149 28.2273 58.864 27.735C59.0057 27.4674 59.0912 27.2275 59.1181 27.018C59.1425 26.8034 59.1572 26.4878 59.1572 26.0687V22.9885H62.46C64.0284 22.9885 65.543 22.4028 67.0038 21.2313C67.7269 20.6734 68.3157 19.916 68.7725 18.9591C69.2342 18.0048 69.4663 16.9343 69.4663 15.7477ZM64.043 17.5554C63.5349 17.9543 63.017 18.1512 62.4893 18.1512H59.1572V13.3139H62.46C63.0072 13.3139 63.5349 13.5209 64.043 13.9299C64.556 14.3414 64.815 14.9474 64.815 15.7477C64.815 16.5506 64.556 17.1514 64.043 17.5554ZM83.5759 21.7194C84.1616 21.1835 84.4558 20.3581 84.4558 19.2435C84.4558 18.1237 84.1298 17.0946 83.4805 16.1535C82.2429 14.3771 80.2949 13.4863 77.6394 13.4863C75.3072 13.4863 73.3593 14.1707 71.7983 15.5396C70.2426 16.9084 69.4661 18.7377 69.4661 21.0249C69.4661 22.8366 70.065 24.4822 71.2682 25.9568C71.8831 26.7167 72.7365 27.3256 73.8337 27.7886C74.9362 28.2516 76.1924 28.483 77.6076 28.483C81.6784 28.483 83.7137 27.6753 83.7137 26.0574C83.7137 25.7152 83.5892 25.3 83.3427 24.8094C82.9028 23.9916 82.378 23.5814 81.7632 23.5814C81.4584 23.5814 81.0768 23.6821 80.6183 23.8834L80.3002 23.9941C79.6695 24.2105 78.8002 24.3162 77.6924 24.3162C77.0617 24.3162 76.4309 24.1451 75.7948 23.8029C75.1641 23.4607 74.8514 23.0354 74.8514 22.5246H81.6466C82.3515 22.5246 82.9955 22.2579 83.5759 21.7194ZM79.4946 19.173C79.4946 19.7568 79.1341 20.0487 78.4133 20.0487H74.7984C74.7984 19.5001 75.1005 18.9868 75.71 18.5087C76.3249 18.0256 76.9424 17.784 77.5652 17.784C78.1854 17.784 78.6624 17.9124 78.9963 18.1665C79.3276 18.4232 79.4946 18.7578 79.4946 19.173ZM93.9289 19.0639L92.0661 18.9546V22.6703C92.0661 23.1547 92.1454 23.5049 92.3095 23.7234C92.4709 23.937 92.7752 24.0414 93.2197 24.0414C93.6695 24.0414 94.0162 24.0563 94.257 24.0811C94.4951 24.1084 94.7491 24.1904 95.019 24.3295C95.4556 24.5679 95.6752 25.1715 95.6752 26.1377C95.6752 27.2653 95.4053 27.9533 94.8708 28.2042C94.5877 28.3308 94.3337 28.4078 94.1088 28.4327C93.8892 28.46 93.5716 28.4724 93.1562 28.4724C91.1717 28.4724 89.6635 28.0527 88.6262 27.2107C87.5943 26.3711 87.081 24.9455 87.081 22.9386V18.9546C86.7211 19.0142 86.3295 19.044 85.9061 19.044C85.488 19.044 85.1441 18.8925 84.8689 18.587C84.5937 18.284 84.4561 17.7624 84.4561 17.0272C84.4561 16.292 84.5011 15.7605 84.5937 15.4277C84.6916 15.0973 84.8265 14.8589 84.9959 14.7123C85.2975 14.4814 85.6786 14.3646 86.139 14.3646L87.081 14.4739V11.702C87.081 11.2922 87.0942 10.9867 87.1233 10.788C87.1577 10.5893 87.2503 10.3757 87.3985 10.1422C87.6446 9.7001 88.3775 9.47656 89.6 9.47656C90.8965 9.47656 91.6744 9.80939 91.9285 10.4701C92.0184 10.7557 92.0661 11.2127 92.0661 11.8411V14.4739C92.9049 14.4019 93.5399 14.3646 93.9712 14.3646C94.3999 14.3646 94.7253 14.3795 94.9449 14.4044C95.1619 14.4317 95.4159 14.5186 95.707 14.6627C96.1991 14.8961 96.4479 15.5841 96.4479 16.7292C96.4479 17.8568 96.1886 18.5448 95.6752 18.7957C95.3842 18.9223 95.1302 18.9993 94.9132 19.0242C94.6936 19.0515 94.3655 19.0639 93.9289 19.0639ZM127.426 11.0075C127.426 10.2862 126.801 9.71016 125.553 9.27439C125.051 9.09407 124.616 9.00391 124.246 9.00391C123.875 9.00391 123.561 9.10158 123.309 9.29442C123.062 9.48226 122.889 9.6751 122.794 9.87546C122.704 10.0708 122.588 10.3764 122.444 10.7971L119.376 19.8933L116.175 10.4966C116.064 10.2035 115.804 9.91052 115.392 9.615C114.986 9.31446 114.548 9.16419 114.075 9.16419C113.601 9.16419 113.213 9.22931 112.911 9.35453C112.224 9.64254 111.751 10.166 111.491 10.9273L108.464 19.8432L105.397 10.7971C105.211 10.196 105 9.75274 104.769 9.46473C104.534 9.17922 104.197 9.03396 103.76 9.03396C103.327 9.03396 102.844 9.12412 102.308 9.30444C101.065 9.72018 100.445 10.2862 100.445 11.0075C100.445 11.2955 100.543 11.7388 100.744 12.3398L106.117 27.3766L106.313 27.7874C106.441 28.0553 106.696 28.3258 107.075 28.5988C107.458 28.8668 107.944 28.9995 108.536 28.9995C109.133 28.9995 109.648 28.7942 110.081 28.3784C110.245 28.2181 110.392 28.0378 110.523 27.8375C110.652 27.6371 110.734 27.4843 110.77 27.3766C110.811 27.2715 111.861 24.2561 113.92 18.3305L117.173 27.6772C117.302 27.9652 117.567 28.2582 117.966 28.5587C118.37 28.8543 118.844 28.9995 119.387 28.9995C119.935 28.9995 120.408 28.8543 120.807 28.5587C121.204 28.2582 121.448 28.0178 121.538 27.8375C121.633 27.6571 121.703 27.5044 121.744 27.3766L127.087 12.3398C127.313 11.6862 127.426 11.2429 127.426 11.0075ZM125.428 21.561C125.428 19.3702 126.189 17.5614 127.716 16.1371C129.241 14.7154 130.985 14.002 132.948 14.002C134.908 14.002 136.642 14.7103 138.149 16.127C139.661 17.5386 140.417 19.3399 140.417 21.5307C140.417 23.0435 140.027 24.3894 139.248 25.5682C138.467 26.7421 137.517 27.6098 136.395 28.1689C135.279 28.7229 134.12 28.9987 132.918 28.9987C131.72 28.9987 130.559 28.7052 129.43 28.1183C128.306 27.5263 127.358 26.6485 126.587 25.4873C125.813 24.3286 125.428 23.0182 125.428 21.561ZM131.123 23.514C131.708 23.9593 132.298 24.1819 132.897 24.1819C133.495 24.1819 134.092 23.9568 134.692 23.5039C135.297 23.046 135.599 22.3706 135.599 21.4801C135.599 20.5845 135.317 19.9167 134.752 19.4765C134.188 19.0388 133.575 18.8187 132.918 18.8187C132.265 18.8187 131.657 19.0489 131.093 19.5068C130.528 19.9597 130.246 20.6301 130.246 21.5206C130.246 22.406 130.539 23.0688 131.123 23.514ZM152.066 14.8878C151.836 14.6168 151.545 14.4266 151.197 14.3146C150.853 14.1974 150.535 14.1166 150.247 14.0749C149.956 14.028 149.595 14.002 149.166 14.002C148.742 14.002 148.246 14.1635 147.681 14.4813C147.115 14.8018 146.744 15.0545 146.569 15.2421C146.392 15.4297 146.261 15.5913 146.175 15.7215C146.175 15.4037 146.074 15.0936 145.872 14.794C145.602 14.3563 144.917 14.1374 143.821 14.1374C142.654 14.1374 141.944 14.3928 141.689 14.8982C141.561 15.164 141.482 15.4063 141.457 15.6277C141.429 15.844 141.417 16.167 141.417 16.5969V26.4871V27.3104C141.457 27.8523 141.621 28.2561 141.912 28.5193C142.296 28.8397 142.925 28.9987 143.801 28.9987C144.945 28.9987 145.655 28.7564 145.933 28.2692C146.074 27.9852 146.158 27.7351 146.185 27.5188C146.211 27.3052 146.226 26.9821 146.226 26.5496V20.6301C146.226 20.1247 146.438 19.6922 146.862 19.3378C147.292 18.9783 147.754 18.7959 148.246 18.7959C148.736 18.7959 149.136 18.8741 149.439 19.0252C149.742 19.1711 150.055 19.244 150.378 19.244C151.038 19.244 151.54 18.8871 151.884 18.1706C152.232 17.4567 152.409 16.8002 152.409 16.2009C152.409 15.5965 152.293 15.1588 152.066 14.8878ZM172.553 8.16088C172.196 8.26898 171.943 8.45751 171.796 8.72398C171.654 8.98542 171.57 9.22172 171.544 9.42785C171.515 9.6365 171.502 9.94821 171.502 10.363V16.0744C170.723 15.1694 169.632 14.7169 168.23 14.7169C166.54 14.7169 164.986 15.4359 163.571 16.8687C162.161 18.3041 161.457 19.9708 161.457 21.8662C161.457 23.7566 162.156 25.4157 163.56 26.8436C164.962 28.2664 166.519 28.9753 168.23 28.9753C169.653 28.9753 170.76 28.5404 171.554 27.6681C171.707 28.553 172.443 28.9954 173.763 28.9954C175.08 28.9954 175.882 28.7516 176.172 28.2614C176.319 28.0075 176.406 27.7762 176.434 27.5676C176.461 27.3614 176.477 27.0497 176.477 26.6324V10.3932C176.477 9.97837 176.461 9.66666 176.434 9.45801C176.406 9.25188 176.321 9.01056 176.182 8.73403C176.04 8.46003 175.788 8.26898 175.425 8.16088C175.067 8.0553 174.586 8 173.984 8C173.387 8 172.911 8.0553 172.553 8.16088ZM168.967 24.2393C168.265 24.2393 167.668 23.9954 167.179 23.5052C166.687 23.0175 166.442 22.4746 166.442 21.8763C166.442 21.273 166.666 20.7249 167.115 20.2272C167.57 19.732 168.178 19.4831 168.935 19.4831C169.698 19.4831 170.302 19.7395 170.744 20.2473C171.191 20.7501 171.417 21.2981 171.417 21.8863C171.417 22.4771 171.181 23.0175 170.713 23.5052C170.25 23.9954 169.666 24.2393 168.967 24.2393ZM54.7993 37.5428V33H58.5066V37.5428H57.5207V33.8052H55.7852V37.5428H54.7993ZM63.8385 36.5686C63.9951 36.2182 64.0747 35.8082 64.0747 35.336C64.0747 34.8663 63.9951 34.4563 63.8385 34.1034C63.6793 33.753 63.438 33.4821 63.1094 33.2883C62.7807 33.0969 62.3597 33 61.8462 33C61.3327 33 60.9116 33.0969 60.583 33.2883C60.2544 33.4821 60.0079 33.753 59.8436 34.1034C59.6844 34.4488 59.6074 34.8564 59.6074 35.3261C59.6074 35.7982 59.6844 36.2108 59.8436 36.5686C60.0079 36.9215 60.2544 37.1924 60.583 37.3837C60.9116 37.5776 61.3327 37.672 61.8462 37.672C62.352 37.672 62.7705 37.5776 63.0991 37.3837C63.4329 37.1924 63.6793 36.9215 63.8385 36.5686ZM60.9322 36.4593C60.7473 36.1884 60.6549 35.8131 60.6549 35.336C60.6549 34.8589 60.7473 34.4861 60.9322 34.2127C61.1222 33.9419 61.4277 33.8052 61.8462 33.8052C62.2698 33.8052 62.5753 33.9419 62.7602 34.2127C62.945 34.4861 63.0375 34.8589 63.0375 35.336C63.0375 35.8131 62.945 36.1884 62.7602 36.4593C62.5753 36.7326 62.2698 36.8668 61.8462 36.8668C61.4277 36.8668 61.1222 36.7326 60.9322 36.4593ZM70.4707 37.5428H64.5758V33H65.5617V36.7376H67.02V33H68.0265V36.7376H69.4848V33H70.4707V37.5428ZM74.3765 36.2108L75.8246 33H74.7976L73.9863 34.9086C73.9452 35.003 73.899 35.1123 73.8528 35.2366C73.804 35.3559 73.7655 35.4553 73.7398 35.5348H73.709C73.6808 35.4553 73.6397 35.3559 73.5858 35.2366C73.5293 35.1173 73.4882 35.0278 73.4625 34.9682L72.5896 33H71.5318L73.1544 36.2605C73.0979 36.4145 73.0235 36.5438 72.9285 36.6481C72.8309 36.7475 72.6743 36.7972 72.4561 36.7972C72.338 36.7972 72.2199 36.7923 72.0966 36.7774C71.9734 36.7575 71.8604 36.7277 71.7577 36.6879V37.5129C71.8656 37.5403 71.9888 37.5577 72.1275 37.5726C72.2635 37.5925 72.3868 37.6024 72.4972 37.6024C72.8669 37.6024 73.1647 37.5477 73.3906 37.4434C73.6166 37.3315 73.804 37.1725 73.9555 36.9662C74.1044 36.755 74.2456 36.504 74.3765 36.2108ZM80.3206 37.5428H79.191L77.4862 35.2366V37.5428H76.5003V33H77.4862V35.1968L79.1704 33H80.2282L78.5234 35.1869L80.3206 37.5428ZM89.6749 36.8724V33.1348H86.9431C86.8661 33.6989 86.7711 34.2034 86.6556 34.6457C86.5452 35.0905 86.4194 35.4956 86.2756 35.8584C86.1318 36.2237 85.9726 36.5617 85.8032 36.8724H85.4437V38.9996H86.4091V37.6775H89.3462V38.9996H90.3013V36.8724H89.6749ZM87.7339 33.9399H88.689V36.8724H86.8507C86.9945 36.5741 87.1228 36.2561 87.2409 35.9181C87.3565 35.5751 87.4566 35.2322 87.5388 34.8942C87.6261 34.5513 87.6928 34.2332 87.7339 33.9399ZM92.9051 33.2402C93.5059 33.2402 93.9449 33.367 94.2196 33.618C94.4995 33.8715 94.6407 34.2194 94.6407 34.6617C94.6407 34.9276 94.5816 35.1761 94.4661 35.4072C94.3557 35.6334 94.1683 35.8148 93.9013 35.954C93.6343 36.0931 93.2748 36.1627 92.8229 36.1627H92.3916V37.783H91.4057V33.2402H92.9051ZM92.8435 34.0255H92.3916V35.3774H92.7202C93.0001 35.3774 93.2235 35.3252 93.3878 35.2184C93.5521 35.1065 93.6343 34.9301 93.6343 34.6915C93.6343 34.2492 93.3698 34.0255 92.8435 34.0255ZM98.2254 36.451L99.6735 33.2402H98.6465L97.8352 35.1488C97.7941 35.2432 97.7479 35.3526 97.7017 35.4768C97.6529 35.5961 97.6144 35.6955 97.5887 35.775H97.5579C97.5296 35.6955 97.4886 35.5961 97.4346 35.4768C97.3782 35.3575 97.3371 35.2681 97.3114 35.2084L96.4385 33.2402H95.3807L97.0033 36.5007C96.9468 36.6548 96.8724 36.784 96.7774 36.8884C96.6798 36.9878 96.5232 37.0375 96.305 37.0375C96.1869 37.0375 96.0688 37.0325 95.9455 37.0176C95.8223 36.9977 95.7093 36.9679 95.6066 36.9281V37.7532C95.7145 37.7805 95.8377 37.7979 95.9763 37.8128C96.1124 37.8327 96.2356 37.8426 96.346 37.8426C96.7158 37.8426 97.0136 37.788 97.2395 37.6836C97.4654 37.5718 97.6529 37.4127 97.8044 37.2065C97.9533 36.9952 98.0945 36.7442 98.2254 36.451ZM103.307 33.2402V34.0355H101.335V37.783H100.349V33.2402H103.307ZM106.452 36.7194L106.791 37.8029H107.869L106.206 33.2402H104.984L103.33 37.8029H104.398L104.747 36.7194H106.452ZM105.877 34.8605L106.216 35.9142H104.994L105.333 34.8605C105.346 34.8158 105.369 34.7363 105.405 34.622C105.432 34.5302 105.459 34.4333 105.488 34.3315C105.495 34.3093 105.501 34.2868 105.507 34.2641C105.548 34.1398 105.579 34.033 105.6 33.946C105.62 34.033 105.646 34.1349 105.682 34.2542C105.715 34.3685 105.749 34.4803 105.785 34.5921C105.818 34.699 105.849 34.7885 105.877 34.8605Z" fill="#535353"/>
  </g>
  
</svg>
